<?xml version="1.0" encoding="UTF-8" standalone="no"?>
<svg
   xmlns:dc="http://purl.org/dc/elements/1.1/"
   xmlns:cc="http://creativecommons.org/ns#"
   xmlns:rdf="http://www.w3.org/1999/02/22-rdf-syntax-ns#"
   xmlns:svg="http://www.w3.org/2000/svg"
   xmlns="http://www.w3.org/2000/svg"
   id="svg119"
   xml:space="preserve"
   viewBox="0 0 550 445"
   height="445"
   width="550"
   version="1.1"><metadata
     id="metadata123"><rdf:RDF><cc:Work
         rdf:about=""><dc:format>image/svg+xml</dc:format><dc:type
           rdf:resource="http://purl.org/dc/dcmitype/StillImage" /></cc:Work></rdf:RDF></metadata><defs
     id="defs4"><style
       id="style2"
       type="text/css">@import url(&quot;https://fonts.googleapis.com/css2?family=Prosto+One:wght@400&quot;);</style></defs><defs
     id="defs6" /><g
     id="background"
     transform="matrix(1 0 0 1 275.5 223)"><linearGradient
       y2="445"
       x2="0"
       y1="0"
       x1="0"
       gradientTransform="matrix(1 0 0 1 -275 -222.5)"
       gradientUnits="userSpaceOnUse"
       id="SVGID_1"><stop
         id="stop8"
         style="stop-color:rgb(14,0,46);stop-opacity: 1"
         offset="0%" /></linearGradient><rect
       id="rect11"
       height="445"
       width="550"
       ry="0"
       rx="0"
       y="-222.5"
       x="-275"
       style="stroke: none; stroke-width: 1; stroke-dasharray: none; stroke-linecap: butt; stroke-dashoffset: 0; stroke-linejoin: miter; stroke-miterlimit: 4; fill: url(#SVGID_1); fill-rule: nonzero; opacity: 1;" /></g><g
     id="g20"
     transform="matrix(1 0 0 1 275.5 223)"><linearGradient
       y2="445"
       x2="0"
       y1="0"
       x1="0"
       gradientTransform="matrix(1 0 0 1 -275 -222.5)"
       gradientUnits="userSpaceOnUse"
       id="linearGradient16"><stop
         id="stop14"
         style="stop-color:rgb(14,0,46);stop-opacity: 1"
         offset="0%" /></linearGradient><rect
       id="rect18"
       height="445"
       width="550"
       ry="0"
       rx="0"
       y="-222.5"
       x="-275"
       style="stroke: none; stroke-width: 1; stroke-dasharray: none; stroke-linecap: butt; stroke-dashoffset: 0; stroke-linejoin: miter; stroke-miterlimit: 4; fill: url(#SVGID_1); fill-rule: nonzero; opacity: 1;" /></g><g
     id="icon"
     transform="matrix(1.18 0 0 1.18 275 161.67)"><g
       id="g88"
       style=""><g
         id="other_icon"
         transform="matrix(1 0 0 1 16.53 0.02)"><linearGradient
           y2="169.58236584266538"
           x2="122.92"
           y1="0"
           x1="0"
           gradientTransform="matrix(1 0 0 1 33.08 0)"
           gradientUnits="userSpaceOnUse"
           id="SVGID_6"><stop
             id="stop22"
             style="stop-color:rgb(87,67,176);stop-opacity: 1"
             offset="0%" /></linearGradient><path
           id="path25"
           stroke-linecap="round"
           d="M 156 60.75 v 48 q 0 18.3 -7.52 32 T 125.92 162 q -15 7.57 -36.84 7.58 h -56 V 30.78 H 56.78 a 53.9 53.9 0 0 1 8.28 0.6 V 138.75 H 89.9 q 15.73 0 24.36 -7.57 q 8 -7.05 8.59 -19.5 c 0 -0.7 0 -1.41 0 -2.13 c 0 -0.25 0 -0.5 0 -0.76 v -48 c 0 -0.27 0 -0.54 0 -0.8 a 4.13 4.13 0 0 0 0 -0.5 c 0 -0.46 0 -0.91 0 -1.35 q -0.49 -17.54 -7.77 -30.23 q -0.24 -0.42 -0.51 -0.84 A 50.26 50.26 0 0 0 92.29 7.11 A 69.31 69.31 0 0 0 75.44 1.73 l -0.28 -0.06 A 101.9 101.9 0 0 0 56.08 0 H 89.19 q 21.23 0 36.21 7.11 c 1.25 0.59 2.46 1.22 3.64 1.88 c 0.49 0.28 1 0.56 1.46 0.85 c 0.15 0.08 0.3 0.18 0.45 0.27 c 1.07 0.67 2.1 1.35 3.11 2.07 l 0.1 0.08 c 0.45 0.32 0.9 0.66 1.34 1 l 0.48 0.37 c 0.3 0.23 0.6 0.47 0.89 0.72 l 0.64 0.55 c 0.25 0.2 0.5 0.42 0.74 0.65 s 0.51 0.45 0.75 0.68 s 0.28 0.25 0.42 0.39 s 0.53 0.5 0.79 0.77 s 0.75 0.76 1.12 1.15 s 0.87 0.94 1.29 1.42 a 48.26 48.26 0 0 1 3.21 4.15 q 1.26 1.81 2.37 3.75 Q 156 41.51 156 60.75 Z"
           transform=" translate(-94.54, -84.79)"
           style="stroke: none; stroke-width: 1; stroke-dasharray: none; stroke-linecap: butt; stroke-dashoffset: 0; stroke-linejoin: miter; stroke-miterlimit: 4; fill: url(#SVGID_6); fill-rule: nonzero; opacity: 1;" /></g><g
         id="g33"
         transform="matrix(1 0 0 1 -16.55 0)"><linearGradient
           y2="169.54"
           x2="122.9"
           y1="0"
           x1="0"
           gradientTransform="matrix(1 0 0 1 0 0)"
           gradientUnits="userSpaceOnUse"
           id="SVGID_7"><stop
             id="stop28"
             style="stop-color:rgb(55,119,225);stop-opacity: 1"
             offset="0%" /></linearGradient><path
           id="path31"
           stroke-linecap="round"
           d="M 122.9 60.75 v 48 c 0 0.26 0 0.51 0 0.76 c 0 0.72 0 1.43 0 2.13 q -0.59 12.46 -8.59 19.5 q -8.62 7.57 -24.36 7.57 H 65.06 v -0.6 a 39.23 39.23 0 0 0 4 -0.81 a 29 29 0 0 0 12.12 -6.16 q 8.14 -7.17 8.6 -19.92 c 0 -0.5 0 -1 0 -1.54 V 59.81 q 0 -13.87 -8.63 -21.45 q -6.2 -5.45 -16.09 -7 a 53.9 53.9 0 0 0 -8.28 -0.6 H 33.11 V 169.54 H 0 V 0 H 56.08 Q 77.31 0 92.29 7.11 a 50.4 50.4 0 0 1 22.8 20.76 q 7.26 12.69 7.77 30.23 c 0 0.44 0 0.89 0 1.35 a 4.13 4.13 0 0 1 0 0.5 C 122.9 60.21 122.9 60.48 122.9 60.75 Z"
           transform=" translate(-61.45, -84.77)"
           style="stroke: none; stroke-width: 1; stroke-dasharray: none; stroke-linecap: butt; stroke-dashoffset: 0; stroke-linejoin: miter; stroke-miterlimit: 4; fill: url(#SVGID_7); fill-rule: nonzero; opacity: 1;" /></g><g
         id="g44"
         transform="matrix(1 0 0 1 -28.92 -40.88)"><linearGradient
           y2="56.98"
           x2="49.08"
           y1="30.78"
           x1="49.08"
           gradientTransform="matrix(1 0 0 1 0 0)"
           gradientUnits="userSpaceOnUse"
           id="SVGID_b800cddf-3fe6-4bf9-86b3-39a88819f387_3"><stop
             id="stop35"
             style="stop-color:rgb(69,56,160);stop-opacity: 1"
             offset="0%" /><stop
             id="stop37"
             style="stop-color:rgb(69,56,160);stop-opacity: 0.67"
             offset="35%" /><stop
             id="stop39"
             style="stop-color:rgb(69,56,160);stop-opacity: 0"
             offset="100%" /></linearGradient><path
           id="path42"
           stroke-linecap="round"
           d="M 65.06 31.38 V 57 H 33.11 V 30.78 H 56.78 A 53.9 53.9 0 0 1 65.06 31.38 Z"
           transform=" translate(-49.09, -43.89)"
           style="stroke: none; stroke-width: 1; stroke-dasharray: none; stroke-linecap: butt; stroke-dashoffset: 0; stroke-linejoin: miter; stroke-miterlimit: 4; fill: url(#SVGID_b800cddf-3fe6-4bf9-86b3-39a88819f387_3); fill-rule: nonzero; opacity: 1;" /></g><g
         id="g63"
         transform="matrix(1 0 0 1 15.98 38.16)"><linearGradient
           y2="104.75"
           x2="95.74"
           y1="141.16"
           x1="92.56"
           gradientTransform="matrix(1 0 0 1 0 0)"
           gradientUnits="userSpaceOnUse"
           id="SVGID_baa82458-60b5-4794-9687-3cb7288e4544_4"><stop
             id="stop46"
             style="stop-color:rgb(0,113,188);stop-opacity: 1"
             offset="0%" /><stop
             id="stop48"
             style="stop-color:rgb(0,113,188);stop-opacity: 0.77"
             offset="15%" /><stop
             id="stop50"
             style="stop-color:rgb(0,113,188);stop-opacity: 0.5"
             offset="36%" /><stop
             id="stop52"
             style="stop-color:rgb(0,113,188);stop-opacity: 0.28"
             offset="56.00000000000001%" /><stop
             id="stop54"
             style="stop-color:rgb(0,113,188);stop-opacity: 0.13"
             offset="74%" /><stop
             id="stop56"
             style="stop-color:rgb(0,113,188);stop-opacity: 0.03"
             offset="89%" /><stop
             id="stop58"
             style="stop-color:rgb(0,113,188);stop-opacity: 0"
             offset="100%" /></linearGradient><path
           id="path61"
           stroke-linecap="round"
           d="M 122.9 107.13 v 1.66 c 0 0.26 0 0.51 0 0.76 c 0 0.72 0 1.43 0 2.13 q -0.59 12.46 -8.59 19.5 q -8.62 7.57 -24.36 7.57 H 65.06 v -0.44 a 36.55 36.55 0 0 0 4 -1 a 29 29 0 0 0 12.12 -6.16 q 8.14 -7.17 8.6 -19.92 c 0.17 -1.33 0.27 -2.71 0.32 -4.13 Z"
           transform=" translate(-93.98, -122.93)"
           style="stroke: none; stroke-width: 1; stroke-dasharray: none; stroke-linecap: butt; stroke-dashoffset: 0; stroke-linejoin: miter; stroke-miterlimit: 4; fill: url(#SVGID_baa82458-60b5-4794-9687-3cb7288e4544_4); fill-rule: nonzero; opacity: 1;" /></g><g
         id="g86"
         transform="matrix(1 0 0 1 26.69 -71.27)"><linearGradient
           y2="38.93"
           x2="120.21"
           y1="-14.81"
           x1="89.18"
           gradientTransform="matrix(1 0 0 1 0 0)"
           gradientUnits="userSpaceOnUse"
           id="SVGID_e2e9c697-f480-43a1-80fc-4bc19c235b7a_5"><stop
             id="stop65"
             style="stop-color:rgb(69,56,160);stop-opacity: 0.99"
             offset="0%" /><stop
             id="stop67"
             style="stop-color:rgb(69,56,160);stop-opacity: 1"
             offset="0%" /><stop
             id="stop69"
             style="stop-color:rgb(69,56,160);stop-opacity: 0.73"
             offset="12%" /><stop
             id="stop71"
             style="stop-color:rgb(69,56,160);stop-opacity: 0.51"
             offset="23%" /><stop
             id="stop73"
             style="stop-color:rgb(69,56,160);stop-opacity: 0.32"
             offset="36%" /><stop
             id="stop75"
             style="stop-color:rgb(69,56,160);stop-opacity: 0.18"
             offset="49%" /><stop
             id="stop77"
             style="stop-color:rgb(69,56,160);stop-opacity: 0.08"
             offset="63%" /><stop
             id="stop79"
             style="stop-color:rgb(69,56,160);stop-opacity: 0.02"
             offset="79%" /><stop
             id="stop81"
             style="stop-color:rgb(69,56,160);stop-opacity: 0"
             offset="100%" /></linearGradient><path
           id="path84"
           stroke-linecap="round"
           d="M 145.86 24.12 h 0 L 114.58 27 A 50.26 50.26 0 0 0 92.29 7.11 A 69.31 69.31 0 0 0 75.44 1.73 l -0.28 -0.06 A 95.7 95.7 0 0 0 63.53 0 H 89.19 q 21.23 0 36.21 7.11 c 1.25 0.59 2.46 1.22 3.64 1.88 c 0.49 0.28 1 0.56 1.46 0.85 c 0.15 0.08 0.3 0.18 0.45 0.27 c 1.07 0.66 2.11 1.35 3.11 2.07 l 0.1 0.08 c 0.45 0.32 0.9 0.66 1.34 1 l 0.48 0.37 c 0.3 0.23 0.6 0.47 0.89 0.72 l 0.64 0.55 c 0.25 0.2 0.5 0.42 0.74 0.65 s 0.51 0.45 0.75 0.68 s 0.28 0.25 0.42 0.39 s 0.53 0.5 0.79 0.77 s 0.75 0.76 1.12 1.15 s 0.87 0.94 1.29 1.42 A 48.58 48.58 0 0 1 145.86 24.12 Z"
           transform=" translate(-104.7, -13.5)"
           style="stroke: none; stroke-width: 1; stroke-dasharray: none; stroke-linecap: butt; stroke-dashoffset: 0; stroke-linejoin: miter; stroke-miterlimit: 4; fill: url(#SVGID_e2e9c697-f480-43a1-80fc-4bc19c235b7a_5); fill-rule: nonzero; opacity: 1;" /></g></g></g><g
     id="logo-name"
     style=""
     transform="matrix(1.64 0 0 1.64 275.82 323.32)"><linearGradient
       y2="33.89999999999999"
       x2="0"
       y1="0"
       x1="0"
       gradientTransform="matrix(1 0 0 1 -117.82 -16.95)"
       gradientUnits="userSpaceOnUse"
       id="SVGID_8"><stop
         id="stop91"
         style="stop-color:rgb(255,255,255);stop-opacity: 1"
         offset="0%" /></linearGradient><text
       id="text116"
       style="stroke: none; stroke-width: 1; stroke-dasharray: none; stroke-linecap: butt; stroke-dashoffset: 0; stroke-linejoin: miter; stroke-miterlimit: 4; fill: url(#SVGID_8); fill-rule: nonzero; opacity: 1; white-space: pre;"
       font-weight="normal"
       font-style="normal"
       font-size="30"
       font-family="Prosto One"
       xml:space="preserve"><tspan
         id="tspan94"
         y="9.42"
         x="-117.82">D</tspan><tspan
         id="tspan96"
         y="9.42"
         x="-88.57">a</tspan><tspan
         id="tspan98"
         y="9.42"
         x="-65.77">t</tspan><tspan
         id="tspan100"
         y="9.42"
         x="-47.17">a</tspan><tspan
         id="tspan102"
         style="white-space: pre; "
         y="9.42"
         x="-23.77" /><tspan
         id="tspan104"
         y="9.42"
         x="-9.22">A</tspan><tspan
         id="tspan106"
         y="9.42"
         x="18.83">d</tspan><tspan
         id="tspan108"
         y="9.42"
         x="43.43">d</tspan><tspan
         id="tspan110"
         y="9.42"
         x="68.03">i</tspan><tspan
         id="tspan112"
         y="9.42"
         x="80.78">c</tspan><tspan
         id="tspan114"
         y="9.42"
         x="102.68">t</tspan></text>
</g></svg>